<svg xmlns="http://www.w3.org/2000/svg" version="1.1" xmlns:xlink="http://www.w3.org/1999/xlink" xmlns:svgjs="http://svgjs.dev/svgjs" width="1000" height="1000" viewBox="0 0 1000 1000"><rect width="1000" height="1000" fill="#000000"></rect><g transform="matrix(0.7,0,0,0.7,150,150.00016091071058)"><svg viewBox="0 0 280 280" data-background-color="#c9efc7" preserveAspectRatio="xMidYMid meet" height="1000" width="1000" xmlns="http://www.w3.org/2000/svg" xmlns:xlink="http://www.w3.org/1999/xlink"><g id="tight-bounds" transform="matrix(1,0,0,1,0,-0.00006436428424194673)"><svg viewBox="0 0 280 280" height="280" width="280"><g><svg viewBox="0 0 280 280" height="280" width="280"><g><svg viewBox="0 0 280 280" height="280" width="280"><g id="textblocktransform"><svg viewBox="0 0 280 280" height="280" width="280" id="textblock"><g><svg viewBox="0 0 280 280" height="280" width="280"><g transform="matrix(1,0,0,1,57.50420886156945,57.50420886156945)"><svg viewBox="0 0 164.9915822768611 164.9915822768611" height="164.9915822768611" width="164.9915822768611"><g><circle r="82" cx="82.49579113843055" cy="82.49579113843055" fill="#ffffff" data-fill-palette-color="accent"></circle><svg xmlns="http://www.w3.org/2000/svg" xmlns:xlink="http://www.w3.org/1999/xlink" version="1.1" x="24.748737341529164" y="24.74873734152917" viewBox="0 0 74.1113052368164 100.0003662109375" enable-background="new 0 0 74.11 100" xml:space="preserve" width="115.49410759380275" height="115.49410759380275" class="icon-o-0" data-fill-palette-color="quaternary" id="o-0"><g fill="#c9efc7" data-fill-palette-color="quaternary"><path d="M18.097 22.218c0.693 2.759-0.427 5.502-2.626 6.156-2.191 0.652-4.675-1.178-5.417-4.127-0.892-2.995 1.478-13.728 1.478-13.728S17.29 19.561 18.097 22.218z" fill="#000000" data-fill-palette-color="quaternary"></path><path d="M27.847 32.956c-0.911 2.538-3.361 4.022-5.549 3.134-2.194-0.88-3.237-3.848-2.239-6.453 0.935-2.694 8.533-9.238 8.533-9.238S28.637 30.378 27.847 32.956z" fill="#000000" data-fill-palette-color="quaternary"></path><path d="M33.248 45.991c-0.641 2.604-2.9 4.348-5.178 3.717-2.272-0.628-3.631-3.466-2.909-6.156 0.65-2.776 7.544-10.049 7.544-10.049S33.753 43.37 33.248 45.991z" fill="#000000" data-fill-palette-color="quaternary"></path><path d="M40.043 58.155c-0.323 2.635-2.337 4.66-4.672 4.331-2.329-0.327-4.034-2.971-3.624-5.723 0.313-2.836 6.376-10.787 6.376-10.787S40.216 55.519 40.043 58.155z" fill="#000000" data-fill-palette-color="quaternary"></path><path d="M8.262 39.868c2.434 1.706 5.239 1.179 6.32-0.987 1.073-2.169 0.091-5.155-2.224-6.862C10.035 30.422 0 27.798 0 27.798S5.732 38.269 8.262 39.868z" fill="#000000" data-fill-palette-color="quaternary"></path><path d="M14.532 54.995c2.612 1.45 5.351 0.607 6.175-1.666 0.827-2.279-0.473-5.142-2.956-6.604-2.478-1.347-12.733-2.944-12.733-2.944S11.818 53.663 14.532 54.995z" fill="#000000" data-fill-palette-color="quaternary"></path><path d="M22.606 69.437c2.794 1.136 5.399-0.057 5.923-2.423 0.525-2.375-1.125-5.052-3.763-6.222-2.622-1.038-13.017-1.526-13.017-1.526S19.71 68.447 22.606 69.437z" fill="#000000" data-fill-palette-color="quaternary"></path><path d="M48.294 69.096c0.031 2.639-1.629 4.927-3.992 4.97-2.342 0.03-4.406-2.345-4.378-5.11-0.096-2.854 4.933-11.467 4.933-11.467S48.068 66.499 48.294 69.096z" fill="#000000" data-fill-palette-color="quaternary"></path><path d="M32.708 82.821c2.942 0.75 5.357-0.846 5.502-3.26 0.16-2.438-1.854-4.852-4.643-5.651-2.747-0.65-13.156 0.148-13.156 0.148S29.645 82.279 32.708 82.821z" fill="#000000" data-fill-palette-color="quaternary"></path><path d="M72.775 99.921c-14.424-5.55-27.001-15.413-36.452-27.534C26.8 60.266 20.065 46.183 15.472 31.569c-0.167-0.541 0.092-1.099 0.58-1.247l0 0c0.487-0.148 1.015 0.163 1.18 0.696l0 0c4.536 14.438 11.189 28.328 20.54 40.227 9.285 11.903 21.573 21.529 35.674 26.958 0.515 0.203 0.789 0.754 0.611 1.231l0 0C73.877 99.912 73.304 100.13 72.775 99.921L72.775 99.921z" fill="#000000" data-fill-palette-color="quaternary"></path></g><g fill="#c9efc7" data-fill-palette-color="quaternary"><path d="M62.6 9.624c-0.882 1.857-2.75 2.904-4.303 2.284-1.542-0.613-2.121-2.816-1.156-4.854C58.027 4.886 64.407 0 64.407 0S63.331 7.775 62.6 9.624z" fill="#000000" data-fill-palette-color="quaternary"></path><path d="M63.407 19.978c-1.613 1.032-3.698 0.857-4.591-0.599-0.922-1.459-0.188-3.644 1.53-4.685 1.759-1.143 9.006-1.27 9.006-1.27S64.946 18.839 63.407 19.978z" fill="#000000" data-fill-palette-color="quaternary"></path><path d="M61.215 29.654c-1.422 1.271-3.508 1.442-4.626 0.153-1.145-1.286-0.785-3.563 0.759-4.855 1.529-1.418 8.676-2.614 8.676-2.614S62.539 28.276 61.215 29.654z" fill="#000000" data-fill-palette-color="quaternary"></path><path d="M60.661 39.531c-1.203 1.492-3.207 2.006-4.543 0.921-1.323-1.079-1.373-3.383-0.06-4.914 1.285-1.656 8.128-3.993 8.128-3.993S61.738 37.941 60.661 39.531z" fill="#000000" data-fill-palette-color="quaternary"></path><path d="M48.992 15.466c0.659 2.127 2.528 3.018 4.108 2.198 1.557-0.833 2.332-3.001 1.767-5.053-0.613-1.955-5.025-8.168-5.025-8.168S48.176 13.356 48.992 15.466z" fill="#000000" data-fill-palette-color="quaternary"></path><path d="M46.259 27.545c0.996 2.001 2.986 2.572 4.411 1.503 1.403-1.079 1.808-3.345 0.938-5.284-0.946-1.835-6.234-7.333-6.234-7.333S45.093 25.594 46.259 27.545z" fill="#000000" data-fill-palette-color="quaternary"></path><path d="M45.561 39.939c1.304 1.807 3.385 2.038 4.594 0.748 1.224-1.297 1.22-3.598 0.045-5.367-1.226-1.648-7.353-6.22-7.353-6.22S44.087 38.219 45.561 39.939z" fill="#000000" data-fill-palette-color="quaternary"></path><path d="M61.737 49.402c-0.937 1.675-2.85 2.505-4.33 1.644-1.486-0.854-1.904-3.12-0.861-4.848 0.997-1.845 7.358-5.294 7.358-5.294S62.548 47.648 61.737 49.402z" fill="#000000" data-fill-palette-color="quaternary"></path><path d="M46.902 52.242c1.583 1.562 3.658 1.462 4.657-0.006 0.993-1.473 0.621-3.744-0.828-5.292-1.479-1.424-8.275-4.908-8.275-4.908S45.181 50.792 46.902 52.242z" fill="#000000" data-fill-palette-color="quaternary"></path><path d="M64.979 78.329c-6.371-9.34-10.425-20.146-11.957-31.316-1.539-11.178-0.151-22.721 3.834-33.261 0.138-0.393 0.55-0.593 0.893-0.46l0 0c0.348 0.135 0.497 0.546 0.362 0.931l0 0c-8.123 20.736-4.498 45.102 7.961 63.33 0.232 0.328 0.185 0.762-0.106 0.989l0 0C65.672 78.77 65.222 78.672 64.979 78.329L64.979 78.329z" fill="#000000" data-fill-palette-color="quaternary"></path></g></svg></g></svg></g><path d="M9.359 184.656c-0.332-1.02-0.219-1.621 0.338-1.803v0l24.629-8.013c0.399-0.13 0.717-0.132 0.954-0.005 0.237 0.126 0.421 0.389 0.551 0.787v0l3.884 11.939c0.089 0.272 0.063 0.495-0.077 0.667-0.14 0.172-0.41 0.323-0.81 0.452v0l-0.617 0.201c-0.387 0.126-0.69 0.162-0.912 0.107-0.221-0.054-0.376-0.218-0.464-0.49v0l-3.17-9.743-8.631 2.808 2.951 9.068c0.082 0.253 0.049 0.475-0.1 0.663-0.143 0.187-0.413 0.345-0.813 0.475v0l-0.57 0.186c-0.399 0.13-0.708 0.16-0.927 0.091-0.219-0.069-0.369-0.23-0.452-0.484v0l-2.95-9.068-11.387 3.705c-0.558 0.181-1-0.232-1.328-1.239v0zM17.998 205.904c-0.308-0.515-0.482-0.915-0.522-1.202-0.043-0.293 0.032-0.497 0.227-0.614v0c0.086-0.051 0.258-0.108 0.516-0.169v0l27.343-5.373c0.45-0.091 0.908 0.252 1.373 1.03v0l0.601 1.003c0.469 0.783 0.555 1.349 0.259 1.697v0l-17.659 21.584c-0.1 0.145-0.227 0.264-0.381 0.356v0c-0.389 0.233-0.871-0.131-1.446-1.091v0l-0.175-0.292c-0.476-0.795-0.571-1.363-0.286-1.704v0l4.416-5.37-6.013-10.043-6.794 1.4c-0.429 0.101-0.881-0.245-1.356-1.04v0zM29.414 205.104l4.899 8.181 8.033-9.68c0.219-0.271 0.489-0.545 0.812-0.824 0.323-0.279 0.634-0.543 0.935-0.793v0l-0.047-0.077c-0.95 0.359-1.721 0.584-2.311 0.674v0zM36.889 233.731c-0.731-0.785-0.882-1.378-0.452-1.777v0l18.96-17.642c0.307-0.286 0.595-0.422 0.864-0.408 0.268 0.014 0.545 0.175 0.831 0.483v0l4.569 4.91c2.17 2.332 3.392 4.467 3.666 6.406 0.274 1.938-0.486 3.743-2.281 5.413v0c-1.215 1.13-2.509 1.789-3.883 1.975-1.369 0.182-2.758-0.064-4.168-0.737v0l-0.11 0.102c0.331 0.757 0.386 1.579 0.166 2.467-0.225 0.892-0.681 2.076-1.366 3.551v0l-3.642 7.649c-0.141 0.24-0.25 0.396-0.328 0.469v0c-0.307 0.286-0.845 0.017-1.612-0.808v0l-0.272-0.293c-0.277-0.298-0.471-0.59-0.584-0.877-0.117-0.292-0.129-0.53-0.037-0.715v0l3.666-7.549c0.479-0.982 0.748-1.857 0.809-2.623 0.056-0.771-0.076-1.495-0.396-2.172-0.329-0.677-0.866-1.415-1.61-2.215v0l-2.445-2.627-8.401 7.817c-0.429 0.399-1.005 0.211-1.726-0.565v0zM49.452 224.65l3.575 3.842c0.64 0.688 1.394 1.165 2.261 1.432 0.863 0.272 1.726 0.319 2.59 0.143 0.865-0.186 1.607-0.567 2.227-1.143v0c1.151-1.071 1.683-2.221 1.595-3.451-0.088-1.22-0.709-2.449-1.861-3.688v0l-3.391-3.645zM59.407 254.171c-0.482-0.31-0.79-0.595-0.924-0.855-0.137-0.255-0.125-0.508 0.037-0.76v0l14.217-22.136c0.321-0.499 0.935-0.457 1.844 0.126v0l1.186 0.762c0.74 0.475 1.078 0.985 1.013 1.53v0l-0.724 15.074-0.49 2.667 2.104-1.37 13.542-7.102c0.485-0.274 1.087-0.181 1.805 0.28v0l1.11 0.713c0.892 0.573 1.177 1.108 0.856 1.607v0l-14.217 22.137c-0.317 0.493-0.921 0.454-1.813-0.119v0l-0.227-0.146c-0.477-0.306-0.782-0.589-0.915-0.849-0.143-0.258-0.134-0.513 0.028-0.766v0l11.598-18.058-0.148 0.119-14.141 7.313c-0.181 0.097-0.35 0.144-0.505 0.139-0.161-0.008-0.328-0.068-0.502-0.18v0l-1.337-0.859c-0.342-0.22-0.503-0.525-0.482-0.915v0l0.841-16.33-11.716 18.243c-0.317 0.493-0.924 0.452-1.821-0.124v0zM94.828 272.993c-1.018-0.338-1.435-0.786-1.249-1.343v0l8.171-24.576c0.132-0.398 0.32-0.656 0.562-0.772 0.242-0.116 0.563-0.108 0.961 0.025v0l11.913 3.961c0.272 0.09 0.435 0.243 0.49 0.458 0.055 0.215 0.016 0.522-0.116 0.92v0l-0.205 0.616c-0.128 0.386-0.28 0.651-0.454 0.797-0.175 0.146-0.398 0.173-0.67 0.083v0l-9.723-3.233-2.863 8.613 9.049 3.008c0.253 0.084 0.411 0.242 0.474 0.474 0.066 0.225 0.032 0.537-0.1 0.936v0l-0.19 0.569c-0.132 0.398-0.291 0.665-0.476 0.8-0.185 0.135-0.404 0.16-0.658 0.076v0l-9.049-3.008-3.778 11.363c-0.185 0.556-0.78 0.668-1.785 0.334v0zM129.397 279.922c-3.975-0.364-6.894-1.846-8.757-4.446-1.863-2.6-2.582-6.222-2.157-10.867v0c0.424-4.632 1.783-8.041 4.078-10.226 2.295-2.186 5.436-3.096 9.424-2.731v0c4.008 0.367 6.945 1.834 8.812 4.4 1.866 2.567 2.587 6.166 2.163 10.798v0c-0.425 4.645-1.79 8.077-4.094 10.295-2.304 2.218-5.461 3.144-9.469 2.777zM129.672 276.916c2.8 0.256 5.032-0.506 6.694-2.288 1.668-1.774 2.668-4.477 3.001-8.107v0c0.333-3.637-0.158-6.459-1.474-8.466-1.309-2-3.371-3.129-6.184-3.387v0c-2.8-0.256-5.023 0.48-6.667 2.21-1.645 1.736-2.633 4.423-2.966 8.06v0c-0.334 3.643 0.149 6.485 1.448 8.524 1.298 2.046 3.348 3.197 6.148 3.454zM155.733 279.449c-1.061 0.162-1.635-0.047-1.723-0.627v0l-3.906-25.603c-0.063-0.415-0.014-0.729 0.149-0.943 0.163-0.214 0.452-0.352 0.867-0.415v0l6.631-1.012c3.149-0.48 5.602-0.288 7.358 0.577 1.756 0.865 2.82 2.509 3.189 4.933v0c0.25 1.64 0.066 3.081-0.554 4.321-0.621 1.234-1.606 2.244-2.956 3.029v0l0.023 0.148c0.812 0.153 1.523 0.57 2.132 1.253 0.611 0.689 1.333 1.731 2.166 3.127v0l4.271 7.317c0.119 0.251 0.187 0.43 0.203 0.535v0c0.063 0.415-0.462 0.707-1.575 0.877v0l-0.395 0.06c-0.402 0.061-0.753 0.058-1.054-0.011-0.307-0.068-0.511-0.192-0.612-0.371v0l-4.175-7.281c-0.542-0.949-1.113-1.664-1.712-2.145-0.606-0.481-1.278-0.779-2.018-0.896-0.745-0.109-1.657-0.081-2.737 0.084v0l-3.548 0.541 1.731 11.344c0.088 0.58-0.391 0.949-1.439 1.11v0zM155.301 263.953l5.187-0.791c0.929-0.142 1.748-0.496 2.457-1.062 0.71-0.56 1.236-1.247 1.577-2.061 0.333-0.819 0.436-1.647 0.308-2.484v0c-0.237-1.555-0.888-2.642-1.953-3.261-1.058-0.614-2.423-0.793-4.096-0.538v0l-4.921 0.751zM184.821 272.695c-0.393 0.148-0.714 0.166-0.963 0.053-0.249-0.113-0.445-0.359-0.588-0.74v0l-8.996-23.881c-0.148-0.393-0.164-0.711-0.05-0.953 0.115-0.243 0.369-0.438 0.762-0.586v0l13.012-4.902c0.268-0.101 0.493-0.09 0.675 0.034 0.182 0.124 0.349 0.388 0.502 0.794v0l0.229 0.608c0.143 0.38 0.19 0.683 0.139 0.909-0.05 0.225-0.21 0.389-0.478 0.49v0l-10.85 4.087 3.199 8.494 9.738-3.669c0.268-0.101 0.497-0.08 0.686 0.063 0.187 0.136 0.354 0.401 0.501 0.793v0l0.212 0.561c0.148 0.393 0.196 0.699 0.143 0.919-0.053 0.219-0.213 0.379-0.481 0.48v0l-9.738 3.668 3.439 9.13 10.898-4.105c0.262-0.099 0.485-0.083 0.669 0.047 0.184 0.13 0.35 0.391 0.498 0.784v0l0.229 0.608c0.143 0.38 0.19 0.683 0.14 0.909-0.05 0.225-0.206 0.388-0.469 0.486v0zM218.47 255.34c-3.642 2.406-6.969 3.226-9.982 2.462-3.017-0.77-5.864-3.182-8.542-7.236v0c-5.216-7.895-4.237-14.212 2.935-18.951v0c1.045-0.691 2.134-1.254 3.268-1.691 1.131-0.428 2.109-0.682 2.933-0.764 0.825-0.082 1.336 0.028 1.535 0.328v0c0.125 0.189 0.223 0.483 0.296 0.883 0.078 0.396 0.107 0.772 0.086 1.129-0.018 0.347-0.097 0.567-0.235 0.659v0c-0.061 0.04-0.29 0.075-0.686 0.105v0c-0.876 0.076-1.748 0.232-2.613 0.469-0.87 0.231-1.816 0.685-2.839 1.36v0c-2.68 1.77-4.162 3.819-4.445 6.147-0.283 2.328 0.651 5.121 2.804 8.379v0c2.101 3.18 4.276 5.106 6.524 5.777 2.246 0.68 4.679 0.156 7.297-1.574v0c1.101-0.727 1.955-1.483 2.563-2.268 0.611-0.779 1.152-1.599 1.621-2.461v0c0.225-0.42 0.377-0.656 0.455-0.708v0c0.133-0.088 0.371-0.073 0.713 0.045 0.332 0.116 0.665 0.275 0.998 0.478 0.334 0.203 0.541 0.365 0.622 0.488v0c0.206 0.311 0.121 0.866-0.254 1.665-0.384 0.797-1.015 1.673-1.893 2.628-0.884 0.959-1.937 1.843-3.161 2.651zM232.466 243.934c-0.409 0.439-0.746 0.717-1.011 0.834-0.269 0.122-0.487 0.106-0.652-0.048v0c-0.073-0.068-0.175-0.218-0.306-0.449v0l-12.734-24.785c-0.212-0.408-0.009-0.943 0.609-1.606v0l0.798-0.855c0.623-0.668 1.143-0.907 1.559-0.719v0l25.63 10.992c0.167 0.056 0.316 0.145 0.447 0.268v0c0.331 0.309 0.115 0.873-0.648 1.691v0l-0.232 0.249c-0.632 0.677-1.151 0.926-1.558 0.747v0l-6.383-2.756-7.985 8.559 3.226 6.14c0.216 0.384 0.008 0.914-0.624 1.592v0zM228.535 233.186l6.506-6.973-11.526-5.039c-0.321-0.135-0.659-0.319-1.017-0.551-0.357-0.233-0.697-0.459-1.021-0.679v0l-0.061 0.066c0.608 0.813 1.037 1.492 1.287 2.034v0zM256.329 214.643c-0.768 1.249-1.62 2.329-2.556 3.24-0.932 0.905-1.79 1.563-2.574 1.973-0.786 0.401-1.338 0.503-1.656 0.307v0c-0.176-0.108-0.366-0.327-0.571-0.656-0.204-0.329-0.363-0.657-0.474-0.984-0.108-0.333-0.128-0.556-0.058-0.669v0c0.063-0.102 0.303-0.264 0.72-0.484v0c0.888-0.541 1.705-1.119 2.45-1.732 0.751-0.61 1.466-1.469 2.147-2.576v0c0.531-0.863 0.836-1.735 0.917-2.616 0.086-0.878-0.059-1.691-0.437-2.439-0.371-0.745-0.952-1.36-1.74-1.845v0c-0.84-0.517-1.676-0.722-2.508-0.616-0.836 0.112-1.612 0.389-2.331 0.832-0.718 0.442-1.695 1.128-2.931 2.058v0c-1.324 1.008-2.442 1.764-3.355 2.268-0.917 0.5-1.962 0.761-3.133 0.783-1.172 0.023-2.453-0.394-3.844-1.249v0c-1.209-0.744-2.101-1.722-2.677-2.936-0.581-1.218-0.788-2.561-0.619-4.031 0.172-1.475 0.716-2.959 1.634-4.451v0c0.415-0.676 0.982-1.387 1.7-2.135 0.716-0.757 1.423-1.347 2.121-1.77 0.698-0.423 1.241-0.516 1.627-0.279v0c0.165 0.101 0.347 0.307 0.547 0.618 0.206 0.314 0.368 0.629 0.487 0.945 0.119 0.316 0.147 0.524 0.084 0.626v0c-0.07 0.114-0.305 0.286-0.706 0.517v0c-0.659 0.385-1.255 0.801-1.788 1.248-0.524 0.445-1.033 1.07-1.529 1.876v0c-0.806 1.311-1.12 2.578-0.939 3.799 0.176 1.227 0.869 2.212 2.078 2.956v0c0.727 0.447 1.435 0.636 2.126 0.568 0.691-0.068 1.343-0.289 1.957-0.663 0.622-0.376 1.418-0.939 2.387-1.688v0c0.053-0.061 0.195-0.177 0.426-0.348v0c1.353-1.03 2.537-1.823 3.552-2.381 1.019-0.563 2.173-0.862 3.463-0.898 1.287-0.045 2.646 0.372 4.077 1.251v0c1.334 0.82 2.307 1.845 2.92 3.075 0.613 1.23 0.834 2.574 0.664 4.034-0.174 1.466-0.727 2.956-1.658 4.472zM267.65 190.197c-0.19 0.52-0.397 0.873-0.621 1.061-0.218 0.19-0.468 0.233-0.75 0.13v0l-22.601-8.252-2.633 7.211c-0.096 0.263-0.255 0.418-0.478 0.464-0.223 0.046-0.525 0-0.906-0.14v0l-0.611-0.222c-0.394-0.144-0.659-0.304-0.792-0.481-0.134-0.177-0.153-0.396-0.058-0.66v0l6.415-17.567c0.098-0.269 0.256-0.428 0.472-0.477 0.216-0.049 0.522-0.001 0.916 0.143v0l0.61 0.223c0.382 0.139 0.643 0.299 0.784 0.477 0.14 0.179 0.161 0.403 0.063 0.672v0l-2.575 7.052 22.601 8.252c0.551 0.201 0.641 0.809 0.27 1.823v0z" fill="#ffffff" data-fill-palette-color="primary"></path><path d="M29.418 108.753C29.086 109.774 28.641 110.193 28.084 110.012V110.012L3.53 102.029C3.137 101.901 2.881 101.716 2.764 101.475 2.646 101.234 2.651 100.916 2.779 100.523V100.523L6.651 88.612C6.738 88.346 6.888 88.185 7.103 88.129 7.318 88.072 7.621 88.108 8.014 88.236V88.236L8.632 88.437C9.019 88.562 9.285 88.712 9.432 88.886 9.579 89.06 9.609 89.28 9.522 89.546V89.546L6.364 99.261 14.976 102.061 17.912 93.03C17.997 92.771 18.151 92.607 18.376 92.54 18.601 92.473 18.91 92.503 19.303 92.631V92.631L19.883 92.82C20.276 92.948 20.54 93.104 20.677 93.288 20.813 93.472 20.839 93.695 20.754 93.954V93.954L17.818 102.985 29.168 106.675C29.726 106.857 29.841 107.451 29.514 108.459V108.459ZM36.103 91.798C35.798 92.307 35.527 92.649 35.29 92.826 35.056 92.996 34.844 93.025 34.656 92.912V92.912C34.564 92.857 34.429 92.733 34.249 92.54V92.54L16.665 71.042C16.369 70.694 16.455 70.128 16.924 69.344V69.344L17.519 68.349C17.985 67.572 18.443 67.228 18.893 67.319V67.319L46.161 72.678C46.341 72.701 46.509 72.758 46.663 72.851V72.851C47.046 73.08 46.952 73.672 46.38 74.627V74.627L46.206 74.919C45.734 75.708 45.278 76.06 44.839 75.976V75.976L38.047 74.614 32.051 84.631 36.482 89.939C36.773 90.269 36.681 90.831 36.206 91.626V91.626ZM30.026 82.138L34.903 73.99 22.621 71.484C22.279 71.42 21.909 71.311 21.511 71.158 21.119 71.009 20.739 70.859 20.371 70.709V70.709L20.325 70.786C21.09 71.454 21.653 72.024 22.015 72.497V72.497ZM52.344 67.501C51.613 68.287 51.033 68.48 50.604 68.08V68.08L31.7 50.494C31.398 50.213 31.244 49.938 31.239 49.669 31.234 49.4 31.372 49.115 31.654 48.812V48.812L36.209 43.916C38.369 41.594 40.406 40.226 42.32 39.813 44.224 39.4 46.071 40.026 47.862 41.692V41.692C49.072 42.818 49.819 44.055 50.103 45.402 50.383 46.755 50.238 48.153 49.668 49.598V49.598L49.785 49.707C50.507 49.322 51.318 49.208 52.22 49.364 53.121 49.52 54.332 49.887 55.852 50.464V50.464L63.715 53.533C63.96 53.66 64.121 53.761 64.199 53.833V53.833C64.507 54.119 64.279 54.672 63.517 55.492V55.492L63.244 55.785C62.972 56.077 62.695 56.292 62.412 56.43 62.129 56.567 61.892 56.597 61.701 56.519V56.519L53.936 53.419C52.931 53.012 52.045 52.806 51.276 52.8 50.507 52.795 49.795 52.979 49.138 53.351 48.487 53.719 47.791 54.301 47.051 55.096V55.096L44.614 57.716 52.993 65.512C53.423 65.911 53.277 66.499 52.555 67.274V67.274ZM42.411 55.667L45.972 51.839C46.612 51.151 47.032 50.367 47.231 49.488 47.44 48.608 47.423 47.746 47.18 46.901 46.937 46.056 46.506 45.346 45.886 44.769V44.769C44.74 43.703 43.562 43.257 42.351 43.433 41.141 43.609 39.962 44.314 38.814 45.548V45.548L35.437 49.178ZM70.817 50.445C70.34 50.751 69.956 50.911 69.663 50.925 69.375 50.944 69.149 50.827 68.987 50.575V50.575L54.817 28.515C54.497 28.016 54.788 27.477 55.69 26.897V26.897L56.876 26.135C57.616 25.66 58.218 25.566 58.681 25.855V25.855L72.044 32.751 74.266 34.306 73.901 31.832 73.07 16.612C73.017 16.06 73.349 15.554 74.067 15.093V15.093L75.177 14.38C76.068 13.807 76.674 13.77 76.995 14.269V14.269L91.165 36.329C91.482 36.823 91.195 37.356 90.303 37.928V37.928L90.076 38.074C89.6 38.38 89.215 38.54 88.923 38.554 88.634 38.573 88.409 38.456 88.247 38.204V38.204L76.686 20.206 76.724 20.395 77.505 36.241C77.509 36.444 77.478 36.618 77.413 36.763 77.344 36.903 77.22 37.03 77.041 37.145V37.145L75.712 37.999C75.37 38.218 75.026 38.238 74.679 38.056V38.056L60.218 30.523 71.897 48.706C72.214 49.199 71.93 49.73 71.044 50.3V50.3ZM101.484 33.901C100.466 34.24 99.864 34.131 99.679 33.574V33.574L91.53 9.075C91.4 8.683 91.397 8.368 91.521 8.13 91.646 7.892 91.904 7.707 92.296 7.577V7.577L104.18 3.624C104.446 3.536 104.665 3.561 104.838 3.7 105.01 3.839 105.162 4.105 105.292 4.497V4.497L105.497 5.114C105.626 5.499 105.664 5.803 105.611 6.024 105.558 6.245 105.399 6.4 105.133 6.488V6.488L95.44 9.713 98.298 18.306 107.308 15.309C107.568 15.223 107.791 15.25 107.979 15.392 108.166 15.533 108.325 15.8 108.455 16.192V16.192L108.648 16.77C108.778 17.162 108.81 17.468 108.742 17.687 108.674 17.906 108.511 18.059 108.252 18.145V18.145L99.241 21.142 103.008 32.467C103.193 33.023 102.783 33.469 101.778 33.803V33.803ZM131.326 28.259C127.365 28.622 124.235 27.698 121.938 25.486 119.641 23.274 118.28 19.852 117.855 15.22V15.22C117.432 10.601 118.147 7.016 120.001 4.464 121.855 1.905 124.769 0.443 128.744 0.079V0.079C132.739-0.287 135.883 0.619 138.177 2.798 140.471 4.97 141.829 8.365 142.253 12.984V12.984C142.677 17.616 141.961 21.228 140.104 23.821 138.247 26.414 135.321 27.893 131.326 28.259ZM131.051 25.253C133.845 24.997 135.898 23.848 137.21 21.808 138.515 19.767 139.001 16.936 138.669 13.312V13.312C138.337 9.689 137.349 7.016 135.706 5.293 134.055 3.564 131.826 2.828 129.019 3.085V3.085C126.232 3.341 124.191 4.468 122.895 6.467 121.592 8.46 121.107 11.268 121.439 14.892V14.892C121.772 18.528 122.762 21.228 124.409 22.991 126.05 24.754 128.264 25.508 131.051 25.253ZM152.562 28.282C151.501 28.12 151.015 27.749 151.103 27.169V27.169L154.994 1.645C155.056 1.237 155.197 0.955 155.416 0.799 155.635 0.644 155.949 0.598 156.357 0.66V0.66L162.968 1.667C166.104 2.145 168.381 3.059 169.8 4.407 171.214 5.749 171.736 7.628 171.368 10.046V10.046C171.119 11.679 170.517 12.993 169.564 13.987 168.603 14.98 167.366 15.647 165.851 15.99V15.99L165.827 16.148C166.551 16.528 167.102 17.134 167.481 17.967 167.859 18.8 168.238 20.007 168.617 21.588V21.588L170.508 29.814C170.541 30.088 170.549 30.278 170.533 30.384V30.384C170.469 30.799 169.884 30.922 168.778 30.753V30.753L168.382 30.693C167.987 30.633 167.653 30.524 167.38 30.368 167.107 30.212 166.949 30.033 166.906 29.831V29.831L165.097 21.668C164.867 20.609 164.538 19.76 164.11 19.121 163.681 18.483 163.128 17.998 162.451 17.665 161.78 17.334 160.908 17.086 159.834 16.923V16.923L156.296 16.384 154.572 27.698C154.484 28.278 153.916 28.488 152.868 28.328V28.328ZM156.75 13.409L161.918 14.197C162.847 14.338 163.731 14.244 164.57 13.914 165.414 13.591 166.117 13.091 166.679 12.415 167.24 11.739 167.585 10.982 167.712 10.146V10.146C167.948 8.598 167.653 7.373 166.826 6.472 166 5.571 164.753 4.993 163.086 4.739V4.739L158.185 3.992ZM177.438 33.792C177.051 33.646 176.802 33.449 176.689 33.2 176.576 32.951 176.591 32.636 176.735 32.256V32.256L185.703 8.45C185.849 8.063 186.045 7.817 186.291 7.71 186.538 7.604 186.855 7.623 187.241 7.769V7.769L200.215 12.656C200.483 12.757 200.645 12.914 200.7 13.127 200.755 13.341 200.708 13.647 200.557 14.046V14.046L200.328 14.654C200.185 15.034 200.02 15.292 199.833 15.429 199.647 15.565 199.419 15.582 199.151 15.481V15.481L188.338 11.408 185.145 19.883 194.845 23.537C195.114 23.638 195.273 23.801 195.323 24.027 195.374 24.252 195.326 24.558 195.18 24.945V24.945L194.965 25.515C194.82 25.902 194.655 26.16 194.47 26.29 194.286 26.42 194.06 26.435 193.792 26.334V26.334L184.092 22.679 180.663 31.781 191.514 35.869C191.782 35.97 191.942 36.13 191.995 36.349 192.048 36.568 192 36.874 191.852 37.267V37.267L191.626 37.866C191.483 38.246 191.318 38.505 191.132 38.641 190.945 38.777 190.718 38.795 190.449 38.694V38.694ZM206.668 49.379C203.038 46.981 200.984 44.25 200.507 41.188 200.03 38.125 201.127 34.573 203.798 30.531V30.531C208.999 22.658 215.175 21.083 222.325 25.807V25.807C223.37 26.498 224.313 27.276 225.154 28.143 225.99 29.007 226.607 29.802 227.005 30.528 227.394 31.257 227.492 31.768 227.297 32.063V32.063C227.172 32.252 226.943 32.46 226.609 32.687 226.27 32.91 225.937 33.081 225.611 33.201 225.28 33.326 225.046 33.343 224.907 33.251V33.251C224.846 33.211 224.727 33.016 224.549 32.668V32.668C224.13 31.888 223.647 31.145 223.099 30.439 222.541 29.736 221.754 29.048 220.736 28.375V28.375C218.062 26.609 215.603 26.05 213.36 26.701 211.117 27.352 208.923 29.301 206.778 32.548V32.548C204.684 35.717 203.767 38.466 204.026 40.793 204.289 43.115 205.725 45.138 208.332 46.861V46.861C209.428 47.584 210.454 48.074 211.41 48.331 212.363 48.593 213.33 48.768 214.309 48.857V48.857C214.775 48.901 215.047 48.949 215.125 49V49C215.259 49.088 215.34 49.31 215.369 49.665 215.389 50.021 215.373 50.39 215.321 50.771 215.26 51.154 215.189 51.406 215.108 51.529V51.529C214.902 51.84 214.36 51.977 213.482 51.94 212.604 51.903 211.553 51.668 210.33 51.235 209.112 50.806 207.891 50.187 206.668 49.379ZM217.065 57.355C216.66 56.921 216.406 56.566 216.303 56.288 216.204 56.016 216.235 55.805 216.396 55.655V55.655C216.474 55.582 216.63 55.486 216.865 55.367V55.367L242.394 44.429C242.811 44.241 243.331 44.481 243.954 45.148V45.148L244.745 45.996C245.363 46.659 245.566 47.194 245.354 47.601V47.601L232.649 72.316C232.577 72.484 232.476 72.629 232.344 72.751V72.751C232.018 73.056 231.475 72.801 230.716 71.988V71.988L230.484 71.739C229.856 71.067 229.644 70.531 229.846 70.133V70.133L233.037 63.984 225.073 55.447 218.746 58.233C218.348 58.422 217.833 58.178 217.201 57.501V57.501ZM228.031 54.192L234.508 61.136 240.319 50.029C240.476 49.719 240.683 49.393 240.94 49.053 241.192 48.718 241.441 48.394 241.688 48.082V48.082L241.626 48.016C240.773 48.567 240.069 48.95 239.514 49.167V49.167ZM238.112 83.454C237.345 82.205 236.767 80.96 236.38 79.72 235.993 78.479 235.797 77.423 235.792 76.549 235.784 75.671 235.939 75.134 236.257 74.938V74.938C236.433 74.83 236.712 74.756 237.095 74.717 237.475 74.686 237.841 74.696 238.192 74.746 238.534 74.794 238.74 74.874 238.81 74.988V74.988C238.873 75.09 238.909 75.377 238.917 75.849V75.849C238.99 76.884 239.135 77.87 239.352 78.809 239.56 79.745 240.004 80.766 240.684 81.873V81.873C241.215 82.736 241.85 83.401 242.591 83.869 243.336 84.342 244.124 84.581 244.956 84.586 245.788 84.59 246.599 84.35 247.388 83.865V83.865C248.228 83.349 248.784 82.694 249.056 81.902 249.331 81.115 249.433 80.301 249.362 79.46 249.291 78.62 249.122 77.441 248.854 75.924V75.924C248.556 74.293 248.388 72.957 248.35 71.916 248.316 70.881 248.553 69.836 249.062 68.78 249.565 67.727 250.509 66.776 251.894 65.924V65.924C253.098 65.184 254.371 64.832 255.715 64.866 257.055 64.895 258.342 65.316 259.577 66.13 260.816 66.948 261.89 68.098 262.801 69.58V69.58C263.216 70.256 263.598 71.081 263.947 72.055 264.29 73.034 264.493 73.93 264.556 74.744 264.614 75.552 264.454 76.074 264.073 76.307V76.307C263.909 76.409 263.644 76.481 263.28 76.525 262.907 76.567 262.553 76.569 262.217 76.533 261.879 76.491 261.68 76.422 261.62 76.325V76.325C261.547 76.206 261.499 75.918 261.477 75.463V75.463C261.431 74.701 261.331 73.984 261.177 73.313 261.016 72.645 260.69 71.91 260.198 71.11V71.11C259.392 69.799 258.403 68.947 257.232 68.557 256.067 68.162 254.882 68.335 253.679 69.075V69.075C252.952 69.521 252.463 70.068 252.212 70.716 251.966 71.36 251.869 72.041 251.92 72.761 251.977 73.477 252.121 74.436 252.352 75.64V75.64C252.379 75.709 252.419 75.888 252.471 76.177V76.177C252.781 77.84 252.956 79.25 252.995 80.407 253.028 81.568 252.772 82.73 252.228 83.894 251.684 85.057 250.702 86.075 249.283 86.948V86.948C247.949 87.768 246.6 88.175 245.235 88.169 243.861 88.161 242.561 87.752 241.335 86.941 240.115 86.126 239.041 84.964 238.112 83.454ZM247.844 103.938C247.657 103.425 247.589 103.024 247.639 102.736 247.684 102.45 247.847 102.256 248.129 102.153V102.153L270.657 93.935 268.036 86.751C267.938 86.482 267.959 86.258 268.099 86.079 268.242 85.906 268.504 85.75 268.886 85.611V85.611L269.497 85.388C269.885 85.247 270.186 85.197 270.4 85.24 270.616 85.288 270.774 85.447 270.872 85.717V85.717L277.261 103.23C277.357 103.493 277.338 103.712 277.204 103.889 277.069 104.066 276.808 104.225 276.42 104.366V104.366L275.81 104.589C275.428 104.728 275.126 104.775 274.903 104.728 274.68 104.682 274.521 104.527 274.425 104.264V104.264L271.859 97.231 249.331 105.449C248.781 105.65 248.321 105.247 247.954 104.239V104.239Z" fill="#ffffff" data-fill-palette-color="primary"></path><path d="M10.376 143.437c0-1.777 1.441-3.218 3.218-3.217 1.777 0 3.218 1.441 3.218 3.217 0 1.777-1.441 3.218-3.218 3.218-1.777 0-3.218-1.441-3.218-3.218zM262.275 143.437c0-1.777 1.441-3.218 3.218-3.217 1.777 0 3.218 1.441 3.218 3.217 0 1.777-1.441 3.218-3.218 3.218-1.777 0-3.218-1.441-3.218-3.218z" fill="#ffffff" data-fill-palette-color="primary"></path></svg></g></svg></g></svg></g></svg></g><defs></defs></svg><rect width="280" height="280" fill="none" stroke="none" visibility="hidden"></rect></g></svg></g></svg>